# xmcd
#
# Track frame offsets:
#	150
#	18798
#	37779
#	52874
#	68428
#	80421
#	93993
#	108978
#	123978
#	137318
#	152625
#	175512
#	189608
#	212100
#	226365
#	244376
#	267076
#	282548
#
# Disc length: 4016 seconds
#
# Revision: 2
# Processed by: cddbd v1.5.1PL0 Copyright (c) Steve Scherf et al.
# Submitted via: EasyCDDAExtractor 5.0.2.1
#
DISCID=e10fae12
DTITLE=蔡琴 - 你的眼神
DYEAR=2001
DGENRE=Blues
TTITLE0=你的眼神
TTITLE1=恰似你的溫柔
TTITLE2=綠島小夜曲
TTITLE3=我有一段情
TTITLE4=今宵多珍重
TTITLE5=明日千里寄相思
TTITLE6=不了情
TTITLE7=春風吻上我的臉
TTITLE8=情人的眼淚
TTITLE9=南屏晚鐘
TTITLE10=痴痴的等
TTITLE11=人生就是戲
TTITLE12=最后一夜
TTITLE13=秦淮河畔
TTITLE14=月光小夜曲
TTITLE15=恨不相逢未嫁時
TTITLE16=明月幾時有
TTITLE17=意難忘
EXTD=
EXTT0=
EXTT1=
EXTT2=
EXTT3=
EXTT4=
EXTT5=
EXTT6=
EXTT7=
EXTT8=
EXTT9=
EXTT10=
EXTT11=
EXTT12=
EXTT13=
EXTT14=
EXTT15=
EXTT16=
EXTT17=
PLAYORDER=
